<?xml version="1.0" encoding="UTF-8"?><!DOCTYPE svg PUBLIC "-//W3C//DTD SVG 1.1//EN"
  "http://www.w3.org/Graphics/SVG/1.1/DTD/svg11.dtd">
<svg xmlns="http://www.w3.org/2000/svg" xmlns:xlink="http://www.w3.org/1999/xlink">
  <defs>
    <linearGradient id="paint0_linear" x1="10.75" y1="12.5" x2="11.345" y2="9.735" gradientUnits="userSpaceOnUse">
      <stop stop-color="#FF8A00"/>
      <stop offset="1" stop-color="#DA1B60"/>
    </linearGradient>
    <linearGradient id="paint1_linear" x1="1.234" y1="12.5" x2="2.009" y2="12.275" gradientUnits="userSpaceOnUse">
      <stop stop-color="#FF8A00"/>
      <stop offset="1" stop-color="#DA1B60"/>
    </linearGradient>
    <linearGradient id="paint2_linear" x1="18.789" y1="18" x2="23.316" y2="17.342" gradientUnits="userSpaceOnUse">
      <stop stop-color="#FF8A00"/>
      <stop offset="1" stop-color="#DA1B60"/>
    </linearGradient>
    <linearGradient id="a" x1="10.75" y1="12.5" x2="11.345" y2="9.735" gradientUnits="userSpaceOnUse">
      <stop stop-color="#FF8A00"/>
      <stop offset="1" stop-color="#DA1B60"/>
    </linearGradient>
    <linearGradient id="b" x1="1.234" y1="12.5" x2="2.009" y2="12.275" gradientUnits="userSpaceOnUse">
      <stop stop-color="#FF8A00"/>
      <stop offset="1" stop-color="#DA1B60"/>
    </linearGradient>
    <linearGradient id="c" x1="18.789" y1="18" x2="23.316" y2="17.342" gradientUnits="userSpaceOnUse">
      <stop stop-color="#FF8A00"/>
      <stop offset="1" stop-color="#DA1B60"/>
    </linearGradient>
  </defs>
  <symbol id="arrow">
    <path d="M7 12.5h16" stroke="url(#paint0_linear)" stroke-width="2" stroke-linecap="round"
          stroke-linejoin="round"/>
    <path d="M1 12.5h1" stroke="url(#paint1_linear)" stroke-width="2" stroke-linecap="round"
          stroke-linejoin="round"/>
    <path d="M17.5 7l5.5 5.5-5.5 5.5" stroke="url(#paint2_linear)" stroke-width="2" stroke-linecap="round"
          stroke-linejoin="round"/>
  </symbol>
  <symbol id="articles" viewBox="0 0 40 40">
    <path
      d="M24.9 6H9.1C7.9 6 7 6.9 7 8.1V16c0 1.2.9 2.1 2.1 2.1h15.8c1.2 0 2.1-.9 2.1-2.1V8.1c0-1.2-.9-2.1-2.1-2.1z"/>
    <path
      d="M33.2 4H37c1.1 0 2 .9 2 2v29.2c0 2.1-1.7 3.8-3.8 3.8H4.8C2.7 39 1 37.3 1 35.2V4.8C1 2.7 2.7 1 4.8 1H29c2.2 0 4 1.8 4 4v28c0 1.7 1.3 3 3 3s3-1.3 3-3V9M7 23h20M7 28h20M7 33h20"/>
  </symbol>
  <symbol id="avatar-border" viewBox="0 0 106 57">
    <path d="M102 4c0 27.1-21.9 49-49 49S4 31.1 4 4"/>
  </symbol>
  <symbol id="logo-star" viewBox="0 0 362.62 388.52">
    <path
      d="M156.58 239l-88.3 64.75c-10.59 7.06-18.84 11.77-29.43 11.77-21.19 0-38.85-18.84-38.85-40 0-17.69 14.13-30.64 27.08-36.52l103.6-44.74-103.6-45.92C13 142.46 0 129.51 0 111.85 0 90.66 18.84 73 40 73c10.6 0 17.66 3.53 28.25 11.77l88.3 64.75-11.74-104.78C141.28 20 157.76 0 181.31 0s40 18.84 36.5 43.56L206 149.52l88.3-64.75C304.93 76.53 313.17 73 323.77 73a39.2 39.2 0 0 1 38.85 38.85c0 18.84-12.95 30.61-27.08 36.5l-103.61 45.91L335.54 239c14.13 5.88 27.08 18.83 27.08 37.67 0 21.19-18.84 38.85-40 38.85-9.42 0-17.66-4.71-28.26-11.77L206 239l11.77 104.78c3.53 24.72-12.95 44.74-36.5 44.74s-40-18.84-36.5-43.56z"/>
  </symbol>
  <symbol id="logo-text" viewBox="0 0 474.15 58.26">
    <path
      d="M46 42.57a4.5 4.5 0 0 0-3 1.13c-4.1 3.46-8.13 5.39-14.08 5.39-10.78 0-18.58-8.93-18.58-20V29c0-11 7.88-19.87 18.58-19.87a20.42 20.42 0 0 1 13.48 5.03 4.95 4.95 0 0 0 7.88-3.86 4.94 4.94 0 0 0-1.93-3.94C43.44 2.57 37.73 0 29 0 12 0 0 13.12 0 29.13v.16c0 16.17 12.23 29 28.64 29 9.09 0 15.12-2.9 20.43-7.56a4.76 4.76 0 0 0 1.61-3.54A4.71 4.71 0 0 0 46 42.57zm36.86-17.95C72 22 69.43 20.12 69.43 15.77v-.16c0-3.7 3.38-6.68 9.17-6.68 4.43 0 8.61 1.45 13 4.26a4.78 4.78 0 0 0 2.57.72 4.6 4.6 0 0 0 4.67-4.59 4.47 4.47 0 0 0-2.17-3.94A31 31 0 0 0 78.76.16C67.58.16 59.53 6.84 59.53 16.5v.16c0 10.38 6.76 13.92 18.74 16.82C88.73 35.89 91 38.06 91 42.08v.16c0 4.18-3.86 7.08-10 7.08a24.42 24.42 0 0 1-15.77-5.79 4.79 4.79 0 0 0-7.56 3.7A4.64 4.64 0 0 0 59.61 51a35.05 35.05 0 0 0 21.16 7.1c11.83 0 20.11-6.28 20.11-16.82v-.16c0-9.34-6.11-13.6-18.02-16.5zm49.88 0c-10.86-2.57-13.43-4.51-13.43-8.85v-.16c0-3.7 3.38-6.68 9.17-6.68 4.42 0 8.61 1.45 13 4.26a4.78 4.78 0 0 0 2.57.72 4.6 4.6 0 0 0 4.67-4.59 4.47 4.47 0 0 0-2.17-3.94A31 31 0 0 0 128.64.16c-11.18 0-19.23 6.68-19.23 16.33v.16c0 10.38 6.76 13.92 18.74 16.82 10.46 2.41 12.71 4.59 12.71 8.61v.16c0 4.18-3.86 7.08-10 7.08a24.42 24.42 0 0 1-15.77-5.79 4.79 4.79 0 0 0-7.56 3.7 4.64 4.64 0 0 0 1.96 3.77 35.05 35.05 0 0 0 21.16 7.08c11.83 0 20.11-6.28 20.11-16.82v-.16c0-9.32-6.11-13.58-18.02-16.48zm45.62 3.22h-15.13a4.79 4.79 0 0 0 0 9.58h15.12a4.79 4.79 0 0 0 0-9.58zM224 1h-37.45a4.59 4.59 0 0 0 0 9.17h13.68v42.62a5 5 0 0 0 10 0V10.14H224A4.59 4.59 0 0 0 224 1zm38.86 0h-20.15a4.91 4.91 0 0 0-5 5v46.79a4.95 4.95 0 0 0 9.89 0V37.66h12.47l13.68 17.46a5.65 5.65 0 0 0 4.83 2.58 4.67 4.67 0 0 0 4.75-4.59 5.74 5.74 0 0 0-1.61-3.78l-10.78-13.6c7.56-2.33 12.79-7.81 12.79-16.82v-.16a17 17 0 0 0-4.66-12.15C275.45 3.06 269.9 1 262.82 1zm10.86 18.51c0 5.71-4.51 9.41-11.58 9.41h-14.53V10H262c7.32 0 11.67 3.3 11.67 9.33zm27-18.91a4.89 4.89 0 0 0-5 4.91v47.28a4.95 4.95 0 0 0 9.89 0V5.47a4.88 4.88 0 0 0-4.98-4.91zm62.67 42a4.5 4.5 0 0 0-3 1.13c-4.1 3.46-8.13 5.39-14.08 5.39-10.78 0-18.58-8.93-18.58-20V29c0-11 7.88-19.87 18.58-19.87a20.42 20.42 0 0 1 13.44 5.07 4.95 4.95 0 0 0 7.88-3.86 4.94 4.94 0 0 0-1.93-3.94C360.72 2.57 355 0 346.32 0c-17.06 0-29 13.12-29 29.13v.16c0 16.17 12.23 29 28.64 29 9.09 0 15.12-2.9 20.43-7.56a4.76 4.76 0 0 0 1.61-3.58 4.71 4.71 0 0 0-4.7-4.58zm41-16.82l17.54-16.9a4.81 4.81 0 0 0 1.77-3.7A4.53 4.53 0 0 0 419 .56a5.2 5.2 0 0 0-4.1 1.85l-26.66 26.88V5.47a4.95 4.95 0 0 0-9.9 0v47.32a4.95 4.95 0 0 0 9.9 0V41.12l9.17-8.85 18.1 23.09a5 5 0 0 0 4.18 2.33 4.83 4.83 0 0 0 5-4.83 5.36 5.36 0 0 0-1.37-3.54zm51.8-1.13c-10.92-2.65-13.49-4.53-13.49-8.88v-.16c0-3.7 3.38-6.68 9.17-6.68 4.42 0 8.61 1.45 13 4.26a4.78 4.78 0 0 0 2.57.72 4.6 4.6 0 0 0 4.67-4.59 4.47 4.47 0 0 0-2.17-3.94A31 31 0 0 0 452 .16c-11.15 0-19.2 6.68-19.2 16.34v.16c0 10.38 6.76 13.92 18.74 16.82 10.46 2.41 12.71 4.59 12.71 8.61v.16c0 4.18-3.86 7.08-10 7.08a24.42 24.42 0 0 1-15.77-5.79 4.79 4.79 0 0 0-7.56 3.7 4.64 4.64 0 0 0 1.96 3.76A35.05 35.05 0 0 0 454 58.1c11.83 0 20.11-6.28 20.11-16.82v-.16c.04-9.34-6.11-13.6-17.98-16.5z"/>
  </symbol>
  <symbol id="svg"/>
</svg>
